<svg version="1.0" xmlns="http://www.w3.org/2000/svg"
 width="1515.000000pt" height="330.000000pt" viewBox="0 0 1515.000000 330.000000"
 preserveAspectRatio="xMidYMid meet">

<g transform="translate(0,330) scale(.1,-.1)" fill="#4C6EB5" stroke="none">
<path d="M2066 3269 l-26 -20 0 -540 0 -540 -67 54 c-100 79 -155 115 -247
158 -162 76 -385 117 -567 105 -329 -21 -572 -135 -804 -377 -173 -179 -274
-374 -321 -614 -22 -112 -25 -366 -5 -475 45 -251 172 -482 363 -666 246 -236
505 -338 853 -336 375 3 694 141 945 409 103 110 212 347 259 566 21 95 21
118 21 1172 l0 1076 -25 24 c-24 25 -27 25 -188 25 -151 0 -166 -2 -191 -21z
m-566 -1228 c272 -92 445 -268 526 -536 24 -81 27 -106 27 -240 0 -176 -18
-261 -83 -390 -105 -208 -302 -365 -525 -421 -101 -25 -285 -23 -389 5 -271
72 -473 265 -567 541 -28 83 -33 111 -37 226 -5 156 14 248 78 383 115 239
293 388 540 452 60 15 101 18 205 15 115 -3 141 -7 225 -35z"/>
<path d="M5346 3269 l-26 -20 0 -1089 c0 -1178 -2 -1125 55 -1310 15 -47 57
-148 95 -226 66 -135 73 -144 167 -235 109 -106 192 -168 303 -228 288 -155
695 -189 1007 -84 384 128 700 473 794 868 60 252 37 560 -60 792 -104 253
-317 485 -571 622 -87 47 -223 93 -330 112 -96 17 -333 17 -430 0 -207 -37
-416 -137 -562 -269 l-38 -34 0 536 0 537 -25 24 c-24 25 -27 25 -188 25 -151
0 -166 -2 -191 -21z m1409 -1219 c205 -65 356 -185 465 -368 247 -416 94 -949
-333 -1163 -121 -62 -209 -81 -357 -81 -185 0 -334 47 -471 148 -67 49 -170
161 -212 231 -132 218 -155 518 -58 769 91 236 312 419 576 478 102 23 297 16
390 -14z"/>
<path d="M13239 3229 c-14 -5 -31 -21 -38 -35 -8 -18 -11 -432 -11 -1573 l0
-1548 21 -27 20 -26 179 0 179 0 20 26 c21 26 21 36 21 518 l1 491 69 55 c38
30 72 56 77 57 4 1 179 -232 388 -518 209 -286 399 -544 423 -574 l42 -55 239
0 c226 0 239 1 256 20 42 46 43 44 -463 740 -265 363 -482 667 -481 673 0 7
183 177 407 380 523 472 482 432 482 471 0 18 -6 41 -14 52 -13 18 -30 19
-242 22 -126 2 -238 1 -251 -3 -12 -3 -226 -182 -475 -399 l-453 -394 -5 802
c-3 440 -9 809 -13 818 -5 9 -22 21 -39 27 -38 13 -303 13 -339 0z"/>
<path d="M3205 3205 c-24 -23 -25 -28 -25 -173 0 -142 1 -149 23 -170 l23 -22
736 0 c734 0 735 0 754 21 16 18 19 40 22 156 4 148 -4 183 -44 202 -18 8
-231 11 -745 11 l-720 0 -24 -25z"/>
<path d="M3805 2484 c-181 -21 -296 -54 -430 -121 -344 -172 -593 -511 -660
-897 -19 -113 -19 -328 0 -439 46 -262 158 -472 359 -673 120 -119 222 -190
355 -245 297 -124 695 -124 992 0 136 57 235 126 360 250 259 260 370 525 370
886 0 365 -117 646 -375 900 -163 160 -326 253 -532 305 -134 33 -321 47 -439
34z m288 -440 c256 -56 495 -276 581 -535 73 -220 52 -451 -62 -674 -37 -72
-64 -108 -137 -181 -76 -76 -105 -97 -185 -137 -117 -57 -187 -75 -312 -84
-396 -25 -725 221 -819 614 -29 119 -23 331 11 438 77 241 272 452 490 530
126 46 303 58 433 29z"/>
<path d="M9052 2478 c-192 -24 -413 -111 -554 -218 -252 -191 -417 -452 -484
-762 -26 -116 -26 -390 0 -506 53 -247 164 -450 346 -633 330 -331 785 -427
1254 -263 125 43 284 141 355 218 14 14 28 26 33 26 4 0 8 -67 8 -148 0 -199
-14 -187 221 -187 172 0 179 1 201 23 l23 23 -1 657 c-1 698 -3 738 -51 902
-72 251 -266 517 -486 668 -243 167 -554 239 -865 200z m333 -433 c89 -19 233
-90 310 -154 111 -91 202 -221 230 -326 23 -86 45 -256 45 -352 0 -74 -4 -91
-41 -174 -140 -320 -329 -506 -575 -569 -88 -23 -253 -27 -348 -9 -76 14 -221
100 -318 188 -161 148 -258 370 -258 595 0 219 76 409 228 568 118 124 250
201 397 233 81 18 245 18 330 0z"/>
<path d="M11725 2430 c-193 -16 -382 -71 -495 -145 -102 -66 -239 -193 -291
-270 -78 -114 -129 -263 -166 -485 -15 -94 -17 -178 -14 -790 3 -603 5 -687
19 -702 13 -16 36 -18 194 -18 161 0 180 2 197 19 18 18 19 48 24 647 4 358
10 657 16 694 6 36 15 112 21 168 12 130 39 193 115 267 72 71 209 138 325
161 149 29 404 4 511 -51 54 -28 120 -97 150 -157 69 -136 79 -275 79 -1088 0
-541 2 -618 16 -638 15 -21 21 -22 194 -22 l179 0 20 26 c21 26 21 34 21 663
0 777 -11 952 -72 1141 -103 322 -393 541 -769 580 -110 11 -138 11 -274 0z"/>
</g>
</svg>
